<svg width="200" height="200" viewBox="0 0 200 200" fill="none" xmlns="http://www.w3.org/2000/svg">
<path opacity="0.4" d="M100 44.1683V177.752C101.417 177.752 102.917 177.502 104.083 176.835L104.417 176.668C120.417 167.918 148.333 158.752 166.417 156.335L168.833 156.002C176.833 155.002 183.333 147.502 183.333 139.502V38.8349C183.333 28.9182 175.25 21.4183 165.333 22.2516C147.833 23.6683 121.333 32.5019 106.5 41.7519L104.417 43.0015C103.167 43.7515 101.583 44.1683 100 44.1683Z" fill="#292D32"/>
<path d="M16.6666 38.9168V139.5C16.6666 147.5 23.1665 155 31.1665 156L33.9167 156.333C52.0834 158.75 80.0835 168 96.0833 176.833C97.1666 177.5 98.5 177.751 100 177.751V44.1668C98.4166 44.1668 96.8333 43.75 95.5833 43L94.1666 42.0835C79.3332 32.7501 52.7498 23.8335 35.2498 22.3335H34.7498C24.8331 21.5002 16.6666 28.9168 16.6666 38.9168Z" fill="#292D32"/>
<path d="M155.5 23.629V49.0469C155.5 51.5502 151.87 53.0521 149.065 51.6753L139 46.606L128.935 51.6753C126.212 53.0521 122.5 51.5502 122.5 49.0469V33.6984C127 31.6 144.5 25.5 155.5 23.629Z" fill="#009D44"/>
<g filter="url(#filter0_d_17_148)">
<path fill-rule="evenodd" clip-rule="evenodd" d="M148.107 39C148.107 60.5622 132.752 90.5381 112.38 94.5897L148.107 86.5897V99.4103L112.38 107.41C132.752 111.462 148.107 128.438 148.107 150H135.286C135.286 135.653 124.65 126.926 109.645 126.926V158L103.721 160.66C101.115 161.83 98.133 161.83 95.5271 160.66L89.6068 158V126.93C74.61 126.93 64.8205 135.653 64.8205 150H52C52 128.438 67.355 111.462 87.7266 107.41L52.0001 99.4103V86.5897L87.7266 94.5897C67.355 90.5381 52.0001 60.5622 52.0001 39H64.8206C64.8206 53.347 74.4789 77.9171 88.3477 81.5905C88.7658 81.7013 89.1857 81.8033 89.607 81.8966V47L95.5272 49.6595C98.1331 50.8302 101.115 50.8304 103.721 49.6602L109.645 47L109.645 82.0736C110.354 81.937 111.059 81.776 111.759 81.5905C125.628 77.9171 135.286 53.347 135.286 39H148.107Z" fill="#D9D9D9"/>
</g>
<defs>
<filter id="filter0_d_17_148" x="48" y="39" width="104.107" height="131.538" filterUnits="userSpaceOnUse" color-interpolation-filters="sRGB">
<feFlood flood-opacity="0" result="BackgroundImageFix"/>
<feColorMatrix in="SourceAlpha" type="matrix" values="0 0 0 0 0 0 0 0 0 0 0 0 0 0 0 0 0 0 127 0" result="hardAlpha"/>
<feOffset dy="5"/>
<feGaussianBlur stdDeviation="2"/>
<feComposite in2="hardAlpha" operator="out"/>
<feColorMatrix type="matrix" values="0 0 0 0 0 0 0 0 0 0 0 0 0 0 0 0 0 0 0.25 0"/>
<feBlend mode="normal" in2="BackgroundImageFix" result="effect1_dropShadow_17_148"/>
<feBlend mode="normal" in="SourceGraphic" in2="effect1_dropShadow_17_148" result="shape"/>
</filter>
</defs>
</svg>
